<?xml version="1.0" encoding="iso-8859-1"?>
<!-- Generator: Adobe Illustrator 21.0.0, SVG Export Plug-In . SVG Version: 6.00 Build 0)  -->
<svg xmlns="http://www.w3.org/2000/svg"  version="1.1" id="Capa_1" x="0px" y="0px" viewBox="0 0 512 512" style="enable-background:new 0 0 512 512;" xml:space="preserve" width="512" height="512">
<g>
	<path style="fill:#FF2C5C;" d="M482.003,433.706H123.025c-2.209,0-4-1.791-4-4V33.875c0-2.209,1.791-4,4-4h358.978   c2.209,0,4,1.791,4,4v395.831C486.003,431.915,484.212,433.706,482.003,433.706z"/>
	<path style="fill:#E62753;" d="M455.097,29.875v403.831h26.905c2.209,0,4-1.791,4-4V33.875c0-2.209-1.791-4-4-4H455.097z"/>
	<path style="fill:#50536E;" d="M486.003,112.29H119.025V33.875c0-2.209,1.791-4,4-4h358.978c2.209,0,4,1.791,4,4V112.29z"/>
	<path style="fill:#484B63;" d="M486.003,112.29h-30.905V29.875h26.905c2.209,0,4,1.791,4,4V112.29z"/>
	<path style="fill:#B5FCFF;" d="M412.637,403.831H53.659c-2.209,0-4-1.791-4-4V4c0-2.209,1.791-4,4-4h358.978c2.209,0,4,1.791,4,4   v395.831C416.637,402.04,414.846,403.831,412.637,403.831z"/>
	<path style="fill:#71F6FC;" d="M385.732,0v403.831h26.905c2.209,0,4-1.791,4-4V4c0-2.209-1.791-4-4-4H385.732z"/>
	<path style="fill:#50536E;" d="M416.637,82.414H49.659V4c0-2.209,1.791-4,4-4h358.978c2.209,0,4,1.791,4,4V82.414z"/>
	<path style="fill:#484B63;" d="M416.637,82.414h-30.905V0h26.905c2.209,0,4,1.791,4,4V82.414z"/>
	<g>
		<path style="fill:#50536E;" d="M103.744,119.79h258.809c4.143,0,7.5-3.357,7.5-7.5s-3.357-7.5-7.5-7.5H103.744    c-4.142,0-7.5,3.357-7.5,7.5S99.602,119.79,103.744,119.79z"/>
		<path style="fill:#50536E;" d="M362.553,147.292H103.744c-4.142,0-7.5,3.357-7.5,7.5s3.358,7.5,7.5,7.5h258.809    c4.143,0,7.5-3.357,7.5-7.5S366.695,147.292,362.553,147.292z"/>
	</g>
	<path style="fill:#FFD659;" d="M512,212.259v275.017C512,500.931,500.931,512,487.276,512H24.724C11.069,512,0,500.931,0,487.276   V159.678c0-13.655,11.069-24.724,24.724-24.724h156.209c7.448,0,14.5,3.358,19.195,9.14l27.848,34.3   c4.695,5.783,11.746,9.14,19.195,9.14h240.106C500.931,187.534,512,198.604,512,212.259z"/>
	<g>
		<path style="fill:#FFBD54;" d="M169.222,144.094l27.848,34.3c4.695,5.783,11.746,9.14,19.195,9.14h30.905    c-7.448,0-14.5-3.358-19.195-9.14l-27.848-34.3c-4.695-5.783-11.746-9.14-19.195-9.14h-30.905    C157.476,134.954,164.527,138.311,169.222,144.094z"/>
		<path style="fill:#FFBD54;" d="M487.276,187.534H456.37c13.655,0,24.724,11.069,24.724,24.724v275.017    c0,13.655-11.069,24.724-24.724,24.724h30.905C500.931,512,512,500.931,512,487.276V212.259    C512,198.604,500.931,187.534,487.276,187.534z"/>
	</g>
	<path style="fill:#4FC6F5;" d="M487.276,512H24.724C11.069,512,0,500.931,0,487.276v-70.052h512v70.052   C512,500.931,500.931,512,487.276,512z"/>
	<path style="fill:#3BB3E3;" d="M481.095,417.223v70.052c0,13.655-11.069,24.724-24.724,24.724h30.905   C500.931,512,512,500.931,512,487.276v-70.052H481.095z"/>
</g>















</svg>
