<?xml version="1.0" encoding="UTF-8" standalone="no"?>
<!-- Created with Inkscape (http://www.inkscape.org/) -->
<svg
  xmlns:dc="http://purl.org/dc/elements/1.1/"
  xmlns:cc="http://creativecommons.org/ns#"
  xmlns:rdf="http://www.w3.org/1999/02/22-rdf-syntax-ns#"
  xmlns="http://www.w3.org/2000/svg"
  xmlns:sodipodi="http://sodipodi.sourceforge.net/DTD/sodipodi-0.dtd"
  xmlns:inkscape="http://www.inkscape.org/namespaces/inkscape"
  width="59"
  height="56"
  id="svg2385"
  sodipodi:version="0.32"
  inkscape:version="0.46"
  version="1.0"
  sodipodi:docname="Nts.svg"
  inkscape:output_extension="org.inkscape.output.svg.inkscape">
  <defs
     id="defs2387">
    <inkscape:perspective
       sodipodi:type="inkscape:persp3d"
       inkscape:vp_x="0 : 526.18109 : 1"
       inkscape:vp_y="0 : 1000 : 0"
       inkscape:vp_z="744.09448 : 526.18109 : 1"
       inkscape:persp3d-origin="372.04724 : 350.78739 : 1"
       id="perspective2393" />
    <inkscape:perspective
       id="perspective2459"
       inkscape:persp3d-origin="372.04724 : 350.78739 : 1"
       inkscape:vp_z="744.09448 : 526.18109 : 1"
       inkscape:vp_y="0 : 1000 : 0"
       inkscape:vp_x="0 : 526.18109 : 1"
       sodipodi:type="inkscape:persp3d" />
  </defs>
  <sodipodi:namedview
     id="base"
     pagecolor="#ffffff"
     bordercolor="#666666"
     borderopacity="1.0"
     gridtolerance="10000"
     guidetolerance="10"
     objecttolerance="10"
     inkscape:pageopacity="0.0"
     inkscape:pageshadow="2"
     inkscape:zoom="9.0535714"
     inkscape:cx="29.5"
     inkscape:cy="28"
     inkscape:document-units="px"
     inkscape:current-layer="layer1"
     showgrid="false"
     inkscape:window-width="1024"
     inkscape:window-height="712"
     inkscape:window-x="-4"
     inkscape:window-y="-4" />
  <metadata
     id="metadata2390">
    <rdf:RDF>
      <cc:Work
         rdf:about="">
        <dc:format>image/svg+xml</dc:format>
        <dc:type
           rdf:resource="http://purl.org/dc/dcmitype/StillImage" />
      </cc:Work>
    </rdf:RDF>
  </metadata>
  <g
     inkscape:label="Layer 1"
     inkscape:groupmode="layer"
     id="layer1">
    <path
       style="fill:#000000;fill-opacity:1"
       d="M 10.749978,48.919889 C 6.2060805,46.273313 4.2701713,33.2458 7.4942887,27.011044 C 10.910712,20.404411 18.984369,18.830523 23.955854,23.802008 C 29.17303,29.019183 28.907739,42.183171 23.475957,47.614952 C 20.892997,50.197912 14.134128,50.890974 10.749978,48.919889 z M 20.75,44.169134 C 22.435094,42.07774 22.39817,28.926789 20.700686,26.605342 C 19.839042,25.426973 18.415249,24.941534 16.473858,25.164212 C 12.350788,25.637131 10.838678,29.03918 11.264929,36.883619 C 11.545146,42.040535 12.042821,43.616256 13.854769,45.083482 C 16.248271,47.021623 18.715254,46.694486 20.75,44.169134 z M 39.177056,46.512416 C 35.149437,45.233682 31.648489,43.981822 31.397173,43.730506 C 31.145856,43.479189 34.216181,40.642233 38.220117,37.426159 C 42.224053,34.210085 46.057997,30.886033 46.739994,30.039376 C 49.64702,26.430481 45.854635,21.360667 42.033225,23.747178 C 40.353932,24.795913 39.899936,24.681546 38.989527,22.980432 C 38.07217,21.266333 38.312018,20.831869 40.670725,19.93509 C 44.013074,18.664331 46.81068,19.276641 50.337518,22.050852 C 55.06405,25.768742 53.149904,31.382726 45.04944,37.560219 C 42.272248,39.678133 40,41.710021 40,42.075525 C 40,42.441029 42.04821,43.313541 44.551577,44.014441 C 47.809409,44.926577 48.946373,45.697367 48.551577,46.726189 C 48.24821,47.516751 48,48.351771 48,48.581787 C 48,49.23229 47.01944,49.002305 39.177056,46.512416 z M 30.017195,28.592385 C 29.367647,25.241573 28.378016,20.326369 27.818016,17.669709 L 26.799833,12.839419 L 24.585465,14.919709 C 21.755219,17.578588 20.990121,17.541955 21.041013,14.75 C 21.090583,12.030557 28.713266,3.2730529 29.890052,4.5835665 C 30.551584,5.3202726 36.003444,30.792035 36.000733,33.133423 C 36.00033,33.481805 34.919593,33.973379 33.599096,34.225808 C 31.370257,34.651877 31.113555,34.248149 30.017195,28.592385 z"
       id="path2465" />
    <path
       style="fill:#ffffff;fill-opacity:0;stroke:none"
       d="M 31.112623,8.5491124 L 31.112623,8.052071 L 31.609665,8.052071 L 32.106706,8.052071 L 32.106706,8.5491124 L 32.106706,9.0461538 L 31.609665,9.0461538 L 31.112623,9.0461538 L 31.112623,8.5491124 z"
       id="path3237" />
    <path
       style="fill:#000000;fill-opacity:1;stroke:none"
       d="M 14.199274,49.909939 C 12.618496,49.725297 10.901083,49.081481 10.090258,48.369566 C 8.8891923,47.315014 7.7013538,45.105086 6.9831798,42.588953 C 6.2721355,40.097797 5.9919986,37.937851 5.9992808,35.002761 C 6.0056153,32.448653 6.2447784,30.665096 6.8212879,28.872584 C 8.0208731,25.142775 10.842689,22.339675 14.441553,21.302859 C 15.615116,20.964762 17.631279,20.887471 18.859527,21.133495 C 20.717923,21.50574 22.329241,22.36807 23.723382,23.736489 C 25.309765,25.293597 26.310352,27.141754 27.012351,29.81144 C 28.193595,34.30367 27.691925,40.057235 25.764157,44.126789 C 23.958606,47.93835 21.613959,49.512614 17.140237,49.917143 C 15.871961,50.031822 15.229313,50.03025 14.19927,49.909937 L 14.199274,49.909939 z M 17.918509,46.228436 C 19.440152,45.823203 20.843725,44.514874 21.283182,43.092081 C 22.289372,39.834426 22.247367,30.987359 21.209969,27.670981 C 20.96363,26.883466 20.853158,26.699807 20.305022,26.166469 C 19.906192,25.778405 19.481188,25.486599 19.128402,25.358603 C 18.333513,25.070204 16.874822,25.002388 15.906659,25.208823 C 12.211404,25.996735 10.876189,29.252626 11.2292,36.614683 C 11.491511,42.085171 12.047372,43.797624 14.037992,45.267791 C 15.382973,46.261125 16.633395,46.570673 17.918507,46.228433 L 17.918509,46.228436 z"
       id="path3251" />
    <path
       style="fill:#000000;fill-opacity:1;stroke:none"
       d="M 31.674154,33.92448 C 31.050589,33.300916 30.8849,32.645284 29.071562,23.626036 C 27.549242,16.054262 26.904823,12.982662 26.819916,12.893654 C 26.781298,12.853172 26.004142,13.513772 25.092899,14.361654 C 22.013533,17.226904 21.301596,17.440009 21.108939,15.554167 C 21.017275,14.656874 21.224559,13.859051 21.84549,12.719273 C 23.351157,9.9554768 26.891225,5.9081568 28.73787,4.8392892 C 29.477224,4.4113376 29.757938,4.4199806 29.947504,4.8765286 C 30.735269,6.7737744 35.195048,27.459861 35.810459,32.071081 C 35.891195,32.676013 35.929095,33.216512 35.894684,33.272188 C 35.788876,33.443389 34.514405,33.974954 33.896141,34.105755 C 33.574213,34.173863 33.011221,34.229586 32.645042,34.229586 C 32.065289,34.229586 31.939836,34.190163 31.674155,33.924481 L 31.674154,33.92448 z"
       id="path3253" />
    <path
       style="fill:#000000;fill-opacity:1;stroke:none"
       d="M 45.471598,48.376889 C 40.446215,46.970287 31.443984,43.923247 31.443984,43.628873 C 31.443984,43.520687 33.821755,41.20731 34.87066,40.295 C 35.388471,39.844626 37.025165,38.482051 38.507767,37.267061 C 42.251345,34.199203 44.913775,31.916133 46.046624,30.802389 C 46.783798,30.077647 47.093156,29.677663 47.372068,29.088654 C 47.708218,28.378768 47.735897,28.23611 47.735897,27.213456 C 47.735897,26.191823 47.708744,26.051496 47.383243,25.390971 C 46.653009,23.90913 45.508526,23.141734 44.016658,23.133609 C 43.210107,23.129217 43.11417,23.156827 42.028492,23.705805 C 40.568439,24.444091 40.425429,24.475014 39.95071,24.155101 C 39.553186,23.887211 38.706612,22.436911 38.578053,21.80355 C 38.425622,21.052586 39.194065,20.477444 41.22301,19.823923 C 44.182504,18.870675 46.771332,19.466502 49.897338,21.820349 C 51.66775,23.15345 52.542735,24.457658 52.740938,26.058886 C 52.914837,27.463772 52.664852,28.589254 51.809313,30.253254 C 50.666679,32.475647 48.717316,34.548673 44.919329,37.580321 C 41.783649,40.083299 39.948915,41.733175 39.948915,42.049944 C 39.948915,42.42654 41.073049,42.929156 44.301128,43.995872 C 47.15027,44.937365 47.946164,45.292085 48.343835,45.797643 C 48.627975,46.15887 48.62158,46.364639 48.294893,47.371582 C 48.14672,47.828298 47.99666,48.338659 47.961427,48.50572 C 47.903419,48.780772 47.853219,48.808748 47.430046,48.801858 C 47.173017,48.797675 46.291716,48.606435 45.471598,48.376886 L 45.471598,48.376889 z"
       id="path3255" />
    <path
       style="fill:#820000;fill-opacity:1;stroke:none"
       d="M 14.199274,49.909939 C 12.544894,49.716701 10.866558,49.067736 10.002604,48.287204 C 7.374632,45.912986 5.5993579,39.27802 6.0239749,33.417334 C 6.3402247,29.052353 7.4814042,26.241706 9.8679718,23.949818 C 11.823076,22.072276 14.004603,21.117248 16.595227,21.004759 C 18.65042,20.91552 20.276349,21.333 22.145098,22.429765 C 23.023072,22.945046 24.666959,24.615202 25.297276,25.632317 C 28.232069,30.368057 28.436962,38.484444 25.764157,44.126789 C 23.958606,47.93835 21.613959,49.512614 17.140237,49.917143 C 15.871961,50.031822 15.229313,50.03025 14.19927,49.909937 L 14.199274,49.909939 z M 17.935241,46.21349 C 19.162821,45.848941 20.547322,44.735195 21.041229,43.714919 C 21.652993,42.451177 21.982398,39.586222 21.979423,35.55503 C 21.976269,31.274124 21.539314,27.904777 20.840719,26.774425 C 20.101809,25.578841 18.61268,24.96178 16.808876,25.103716 C 12.472585,25.444928 10.891155,28.665596 11.232149,36.461025 C 11.478729,42.098008 12.097884,43.94891 14.218758,45.389169 C 15.552916,46.295179 16.75921,46.562736 17.935243,46.213492 L 17.935241,46.21349 z"
       id="path3257" />
    <path
       style="fill:#82101b;fill-opacity:1;stroke:none"
       d="M 31.685472,33.925838 C 31.051513,33.353343 30.977284,33.055092 28.805955,22.355819 C 26.998017,13.447156 26.892882,12.967258 26.749175,12.967258 C 26.680341,12.967258 25.920322,13.613412 25.060239,14.403156 C 22.531378,16.7252 21.772772,17.147877 21.334499,16.479045 C 21.183478,16.24858 21.138659,15.95155 21.138659,15.181215 C 21.138659,14.236503 21.163575,14.130389 21.597413,13.227416 C 23.238558,9.8115998 28.092058,4.5175542 29.58248,4.5175542 C 29.73338,4.5175542 29.858325,4.6420532 29.965959,4.8996576 C 30.719811,6.7038804 35.263083,27.802149 35.820263,32.086162 C 35.892117,32.638639 35.931319,33.149435 35.907376,33.221264 C 35.781222,33.599722 33.785581,34.229586 32.712642,34.229586 C 32.114203,34.229586 31.97685,34.188969 31.68547,33.925838 L 31.685472,33.925838 z"
       id="path3259" />
    <path
       style="fill:#82101b;fill-opacity:1;stroke:none"
       d="M 32.23925,34.150777 C 31.854142,34.079636 31.475047,33.704121 31.238849,33.159819 C 30.958852,32.514595 30.383375,29.904231 28.650028,21.416963 C 27.824977,17.37712 27.075312,13.808863 26.984109,13.487502 L 26.818285,12.903211 L 26.518906,13.117578 C 26.354247,13.235482 25.573373,13.900454 24.783629,14.595293 C 22.944875,16.213085 22.254805,16.689005 21.811153,16.645322 C 21.33637,16.598571 21.19746,16.24866 21.195514,15.094484 C 21.193923,14.153486 21.207499,14.102827 21.730814,13.096449 C 23.007738,10.640812 25.418354,7.6250992 27.585268,5.7724402 C 28.442774,5.0392887 29.393526,4.4921068 29.643329,4.5879651 C 29.970187,4.7133908 30.487136,6.6378711 31.955587,13.195914 C 34.028961,22.455522 35.713684,30.980229 35.79592,32.628008 L 35.828994,33.29073 L 35.235649,33.579915 C 34.400394,33.987 32.900042,34.272841 32.23925,34.150776 L 32.23925,34.150777 z"
       id="path3261" />
    <path
       style="fill:#003972;fill-opacity:1;stroke:none"
       d="M 13.627811,49.792676 C 10.807848,49.226113 9.4076529,48.158159 8.2170597,45.665796 C 6.7830135,42.663791 6.0345608,39.084084 6.0444884,35.274785 C 6.0581559,30.031336 7.1292316,26.780354 9.6922875,24.202806 C 11.860582,22.022253 14.070921,21.085602 17.048368,21.085602 C 18.770984,21.085602 19.707873,21.286264 21.157938,21.965788 C 23.038238,22.846925 24.798871,24.624154 25.811789,26.663511 C 27.710296,30.485864 28.119845,35.958114 26.876869,40.894797 C 26.317502,43.116417 25.176706,45.472841 24.00487,46.827183 C 22.198578,48.914802 19.954933,49.777419 16.113018,49.861387 C 15.049901,49.884623 13.931558,49.853702 13.627811,49.792676 z M 18.555308,45.968555 C 19.325437,45.602261 20.307448,44.809627 20.769594,44.181287 C 21.554308,43.114382 21.859342,41.1148 21.933882,36.549112 C 21.998536,32.589125 21.821948,30.021709 21.359564,28.198934 C 21.054756,26.997354 20.814282,26.552385 20.17312,26.003575 C 18.590502,24.648913 15.270598,24.809794 13.498025,26.327049 C 11.648013,27.910593 10.903381,31.487117 11.243322,37.156607 C 11.514051,41.671832 11.999893,43.356895 13.429128,44.737739 C 15.055935,46.309474 16.905073,46.753455 18.555311,45.968554 L 18.555308,45.968555 z"
       id="path3263" />
    <path
       style="fill:#005430;fill-opacity:1;stroke:none"
       d="M 46.763905,48.731886 C 45.28729,48.384599 39.496021,46.588063 35.663314,45.288322 C 32.881878,44.34509 31.551016,43.817743 31.489994,43.634675 C 31.39841,43.359922 34.10626,40.887403 38.120724,37.580199 C 44.784446,32.090479 46.828915,30.223809 47.323994,29.177298 C 48.082239,27.574499 47.853848,25.7025 46.74151,24.402983 C 46.219093,23.792657 45.638136,23.437563 44.818463,23.227573 C 43.878416,22.986743 43.251542,23.100975 41.971474,23.746365 C 40.442398,24.517299 40.285596,24.533649 39.756365,23.97731 C 39.266871,23.462741 38.67166,22.326092 38.572847,21.717183 C 38.51282,21.347276 38.546632,21.266498 38.901626,20.931695 C 39.119253,20.726446 39.676268,20.400756 40.139437,20.207938 C 43.347355,18.872477 46.04341,19.178077 49.084646,21.221879 C 51.865167,23.090473 52.885636,24.736596 52.759348,27.149556 C 52.679189,28.681188 52.018582,30.23218 50.658325,32.082417 C 49.744905,33.324857 47.140742,35.83683 45.051874,37.490388 C 42.038587,39.875722 39.971006,41.732084 39.971006,42.052208 C 39.971006,42.424854 41.225339,42.978395 44.541942,44.06937 C 47.376478,45.00177 48.215819,45.420144 48.466622,46.025638 C 48.584641,46.310557 48.566075,46.475184 48.331515,47.223731 C 48.18196,47.701013 48.02506,48.253057 47.982854,48.450493 C 47.910552,48.788723 47.879497,48.808727 47.445464,48.796655 C 47.192108,48.789611 46.885404,48.760461 46.763905,48.731886 z"
       id="path3265" />
  </g>
</svg>
