<svg xmlns="http://www.w3.org/2000/svg" height="511pt" version="1.1" viewBox="-1 1 511 511.99994" width="511pt">
<g id="surface1">
<path d="M 0.5 271.0625 L 0.5 297.4375 L 80.070312 297.4375 L 106.445312 271.0625 Z M 0.5 271.0625 " style=" stroke:none;fill-rule:nonzero;fill:rgb(66.27451%,48.627451%,31.372549%);fill-opacity:1;" />
<path d="M 132.820312 244.683594 L 0.5 244.683594 L 0.5 271.0625 L 106.445312 271.0625 Z M 132.820312 244.683594 " style=" stroke:none;fill-rule:nonzero;fill:rgb(70.980392%,56.078431%,41.176471%);fill-opacity:1;" />
<path d="M 277.363281 100.144531 L 15.972656 30.15625 L 9.8125 53.183594 L 256.414062 121.09375 Z M 277.363281 100.144531 " style=" stroke:none;fill-rule:nonzero;fill:rgb(61.176471%,45.882353%,34.509804%);fill-opacity:1;" />
<path d="M 9.8125 53.183594 L 2.347656 81.0625 L 234.28125 143.222656 L 256.414062 121.09375 Z M 9.8125 53.183594 " style=" stroke:none;fill-rule:nonzero;fill:rgb(54.509804%,36.862745%,23.529412%);fill-opacity:1;" />
<path d="M 293.191406 158.960938 L 494.96875 213.03125 L 501.511719 188.582031 L 314.941406 137.210938 Z M 293.191406 158.960938 " style=" stroke:none;fill-rule:nonzero;fill:rgb(54.509804%,36.862745%,23.529412%);fill-opacity:1;" />
<path d="M 501.511719 188.582031 L 508.597656 162.125 L 336.183594 115.96875 L 314.941406 137.210938 Z M 501.511719 188.582031 " style=" stroke:none;fill-rule:nonzero;fill:rgb(61.176471%,45.882353%,34.509804%);fill-opacity:1;" />
<path d="M 377.507812 0 L 256.414062 121.09375 L 234.28125 143.222656 L 132.820312 244.683594 L 106.445312 271.0625 L 16.941406 360.566406 L 34.324219 377.910156 L 141.175781 271.0625 L 283.652344 128.585938 L 394.886719 17.347656 Z M 377.507812 0 " style=" stroke:none;fill-rule:nonzero;fill:rgb(80%,65.882353%,50.588235%);fill-opacity:1;" />
<path d="M 394.886719 17.347656 L 283.652344 128.585938 L 141.175781 271.0625 L 34.324219 377.910156 L 54.308594 397.84375 L 181.089844 271.0625 L 207.464844 244.683594 L 293.191406 158.960938 L 336.183594 115.96875 L 414.871094 37.277344 Z M 394.886719 17.347656 " style=" stroke:none;fill-rule:nonzero;fill:rgb(76.862745%,60.392157%,42.352941%);fill-opacity:1;" />
<path d="M 9.089844 486.144531 L 16.019531 512 L 508.578125 380.011719 L 501.230469 352.5625 Z M 9.089844 486.144531 " style=" stroke:none;fill-rule:nonzero;fill:rgb(54.509804%,36.862745%,23.529412%);fill-opacity:1;" />
<path d="M 494.925781 329.054688 L 2.363281 461.042969 L 9.089844 486.144531 L 501.230469 352.5625 Z M 494.925781 329.054688 " style=" stroke:none;fill-rule:nonzero;fill:rgb(61.176471%,45.882353%,34.509804%);fill-opacity:1;" />
<path d="M 154.714844 297.4375 L 510.441406 297.4375 L 510.441406 271.0625 L 181.089844 271.0625 Z M 154.714844 297.4375 " style=" stroke:none;fill-rule:nonzero;fill:rgb(66.27451%,48.627451%,31.372549%);fill-opacity:1;" />
<path d="M 510.441406 271.0625 L 510.441406 244.683594 L 207.464844 244.683594 L 181.089844 271.0625 Z M 510.441406 271.0625 " style=" stroke:none;fill-rule:nonzero;fill:rgb(70.980392%,56.078431%,41.176471%);fill-opacity:1;" />
</g>
</svg>